<?xml version="1.0" encoding="UTF-8"?>
<svg version="1.1" xmlns="http://www.w3.org/2000/svg" width="577" height="474">
<path d="M0 0 C190.41 0 380.82 0 577 0 C577 156.42 577 312.84 577 474 C386.59 474 196.18 474 0 474 C0 317.58 0 161.16 0 0 Z " fill="#FDFDFD" transform="translate(0,0)"/>
<path d="M0 0 C0.79083984 0.00974854 1.58167969 0.01949707 2.39648438 0.02954102 C12.81182506 0.34512498 19.01261714 3.77546248 26.703125 10.73046875 C32.8277504 17.5762194 37.09090481 25.74497028 41.5 33.75 C46.29548852 42.38818834 51.13941802 50.99444426 56.05825806 59.56298828 C62.35898437 70.53962054 68.55898692 81.56644866 74.68896484 92.63964844 C79.17590787 100.74196151 83.71291905 108.81433947 88.27978516 116.87182617 C92.27383479 123.92162329 96.23532214 130.98915662 100.1875 138.0625 C104.93966519 146.56431345 109.74004911 155.03631744 114.58618164 163.48486328 C119.08460742 171.33906857 123.50045589 179.23853457 127.9140625 187.140625 C131.61529247 193.76044601 135.35129884 200.35874825 139.125 206.9375 C144.115823 215.63807913 149.02297552 224.38365704 153.9140625 233.140625 C157.61529247 239.76044601 161.35129884 246.35874825 165.125 252.9375 C169.50727618 260.57719002 173.83022553 268.24828866 178.125 275.9375 C182.92226193 284.52524776 187.76162091 293.08674486 192.65405273 301.62060547 C196.90727453 309.04274223 201.11176497 316.49184812 205.31152344 323.94433594 C209.43789209 331.25368878 213.62916175 338.52368481 217.87524414 345.76416016 C221.125 351.33150988 221.125 351.33150988 221.125 352.4375 C195.385 352.4375 169.645 352.4375 143.125 352.4375 C138.175 343.5275 133.225 334.6175 128.125 325.4375 C123.47923056 317.42354772 118.82084713 309.42157989 114.125 301.4375 C111.815 297.4775 109.505 293.5175 107.125 289.4375 C86.665 289.1075 66.205 288.7775 45.125 288.4375 C45.125 225.7375 45.125 163.0375 45.125 98.4375 C31.595 98.4375 18.065 98.4375 4.125 98.4375 C3.465 100.0875 2.805 101.7375 2.125 103.4375 C-0.03370362 106.8981022 -2.44670788 110.16188892 -4.875 113.4375 C-5.31585938 114.04851562 -5.75671875 114.65953125 -6.2109375 115.2890625 C-14.7981898 126.27033666 -27.43612164 132.82349295 -39.875 138.4375 C-41.18984375 139.04078125 -41.18984375 139.04078125 -42.53125 139.65625 C-44.875 140.4375 -44.875 140.4375 -49.875 140.4375 C-49.875 150.6675 -49.875 160.8975 -49.875 171.4375 C-36.015 171.4375 -22.155 171.4375 -7.875 171.4375 C-7.875 186.2875 -7.875 201.1375 -7.875 216.4375 C-26.685 216.4375 -45.495 216.4375 -64.875 216.4375 C-65.535 218.0875 -66.195 219.7375 -66.875 221.4375 C-67.87690302 223.36122225 -68.90965858 225.2690424 -69.96484375 227.1640625 C-70.58552734 228.28039062 -71.20621094 229.39671875 -71.84570312 230.546875 C-72.3330896 231.41795898 -72.3330896 231.41795898 -72.83032227 232.30664062 C-73.7815719 234.00720919 -74.72778617 235.71059136 -75.67382812 237.4140625 C-81.29178084 247.49316217 -87.09137624 257.44760441 -92.875 267.4375 C-64.495 267.4375 -36.115 267.4375 -6.875 267.4375 C-6.875 274.6975 -6.875 281.9575 -6.875 289.4375 C-39.545 289.4375 -72.215 289.4375 -105.875 289.4375 C-106.535 291.0875 -107.195 292.7375 -107.875 294.4375 C-109.00431259 296.6800843 -110.15182059 298.90189443 -111.33203125 301.1171875 C-111.67166901 301.75876801 -112.01130676 302.40034851 -112.36123657 303.06137085 C-113.46690329 305.14673748 -114.5768849 307.22976505 -115.6875 309.3125 C-116.25333298 310.37664124 -116.25333298 310.37664124 -116.83059692 311.46228027 C-123.26145072 323.55094307 -129.88579425 335.51618448 -136.72436523 347.37988281 C-137.83522342 349.36636972 -138.85714577 351.40179154 -139.875 353.4375 C-165.285 353.4375 -190.695 353.4375 -216.875 353.4375 C-212.915 346.0125 -212.915 346.0125 -208.875 338.4375 C-207.68519531 336.1996875 -206.49539062 333.961875 -205.26953125 331.65625 C-198.87496635 319.65034416 -192.39362445 307.71011698 -185.65625 295.8918457 C-181.16912187 288.00560777 -176.83787577 280.0407611 -172.53198242 272.05444336 C-169.41021271 266.266427 -166.26526123 260.49360055 -163.0625 254.75 C-158.71223763 246.94681854 -154.38080556 239.13340306 -150.0625 231.3125 C-149.71830017 230.68926849 -149.37410034 230.06603699 -149.01947021 229.42391968 C-144.36521952 220.99331424 -139.75620981 212.53985502 -135.1875 204.0625 C-131.02661674 196.34335297 -126.77607528 188.68313683 -122.4375 181.0625 C-117.11226247 171.7086396 -111.97656268 162.26246612 -106.89257812 152.77563477 C-102.43119537 144.45406173 -97.88417602 136.18590574 -93.27539062 127.9453125 C-90.40336623 122.80210563 -87.54715924 117.65008856 -84.6875 112.5 C-83.39069498 110.16532567 -82.09383827 107.83068016 -80.796875 105.49609375 C-80.47162842 104.91061264 -80.14638184 104.32513153 -79.8112793 103.72190857 C-77.58883433 99.72154205 -75.3649955 95.72195253 -73.140625 91.72265625 C-67.03649092 80.74552131 -60.94466205 69.76183452 -54.88122559 58.76217651 C-53.88146567 56.94922477 -52.88082511 55.13676207 -51.87988281 53.32446289 C-51.21546629 52.12127225 -50.55107827 50.91806587 -49.88671875 49.71484375 C-49.55809845 49.1196846 -49.22947815 48.52452545 -48.89089966 47.91133118 C-46.83464595 44.18454803 -44.78780305 40.45274624 -42.74685669 36.71755981 C-41.38926586 34.23542335 -40.02651456 31.756143 -38.6628418 29.27734375 C-37.71531195 27.5506811 -36.77454327 25.82031354 -35.83398438 24.08984375 C-31.96262553 17.06356481 -28.43049086 10.73239989 -21.5625 6.25 C-20.86511719 5.78207031 -20.16773438 5.31414063 -19.44921875 4.83203125 C-13.00181165 1.33927809 -7.33093666 -0.10129508 0 0 Z " fill="#3374FE" transform="translate(284.875,5.5625)"/>
<path d="M0 0 C7.70976263 5.59482775 12.04422291 15.13266873 15 24 C15.93644136 39.68923063 14.89211631 53.69884195 4 66 C1.52313489 68.4287187 -1.00593975 70.2543282 -4 72 C-4.82757813 72.48597656 -5.65515625 72.97195313 -6.5078125 73.47265625 C-16.56700165 78.50225083 -27.91800821 78.53860321 -38.7578125 76.18359375 C-49.47631228 72.54741238 -57.45302552 65.43321341 -62.81640625 55.51171875 C-67.62004256 45.31786348 -68.65569648 33.71012183 -66.3125 22.625 C-61.71687867 9.93233156 -55.34907163 0.96995782 -43 -5 C-28.34759856 -11.30338698 -12.99103485 -8.46983883 0 0 Z " fill="#3072FE" transform="translate(405,388)"/>
<path d="M0 0 C13 0 13 0 16.078125 2.40234375 C17.18969727 4.0625 17.18969727 4.0625 18.25 5.9375 C18.67144287 6.58847656 19.09288574 7.23945313 19.52709961 7.91015625 C20.49110894 9.39923508 21.43716241 10.90003349 22.36865234 12.40966797 C24.90768522 16.44126611 27.63486224 20.34048218 30.33691406 24.26391602 C37.33287261 34.4362976 44.15185869 44.72778804 51 55 C51 36.85 51 18.7 51 0 C55.95 0 60.9 0 66 0 C66 27.39 66 54.78 66 83 C52 83 52 83 47.9921875 79.2578125 C46.90343129 77.57806016 45.86609123 75.86416537 44.875 74.125 C44.30426758 73.22112549 43.73353516 72.31725098 43.14550781 71.38598633 C41.96866927 69.51918137 40.81105293 67.64012204 39.67285156 65.74951172 C37.16940626 61.63482973 34.45295209 57.67251965 31.75 53.6875 C30.86762006 52.35951328 29.98743121 51.03006824 29.109375 49.69921875 C24.75691229 43.12131342 20.37520181 36.56280271 16 30 C15.67 47.49 15.34 64.98 15 83 C10.05 83 5.1 83 0 83 C0 55.61 0 28.22 0 0 Z " fill="#3273FE" transform="translate(435,381)"/>
<path d="M0 0 C5.28 0 10.56 0 16 0 C19.75781432 8.83394382 23.18122007 17.753983 26.44921875 26.77734375 C26.95268174 28.16078686 27.45641535 29.54413152 27.96040344 30.92738342 C29.27221974 34.52970169 30.58087332 38.13315995 31.88867188 41.73693848 C33.9907534 47.52762058 36.09791473 53.31645655 38.20475197 59.10540962 C38.9357332 61.11526483 39.66545314 63.12557424 40.39494324 65.13597107 C40.83913101 66.35816849 41.28331879 67.58036591 41.7409668 68.83959961 C42.13003708 69.91149033 42.51910736 70.98338104 42.91996765 72.0877533 C43.61928691 73.9734285 44.35759735 75.8452827 45.14118958 77.69752502 C46 80 46 80 46 83 C40.39 83 34.78 83 29 83 C28.175 80.56625 27.35 78.1325 26.5 75.625 C26.23896484 74.86010254 25.97792969 74.09520508 25.70898438 73.30712891 C24 68.22222222 24 68.22222222 24 66 C13.44 66 2.88 66 -8 66 C-8.66 68.97 -9.32 71.94 -10 75 C-10.88555756 77.7338543 -11.93144343 80.32860857 -13 83 C-18.61 83 -24.22 83 -30 83 C-27.94905693 75.93936325 -25.63932178 69.04173016 -23.0859375 62.1484375 C-22.7119986 61.13190094 -22.33805969 60.11536438 -21.95278931 59.06802368 C-20.76297971 55.83598099 -19.56898643 52.60550165 -18.375 49.375 C-17.59739838 47.26311576 -16.82005284 45.15113722 -16.04296875 43.0390625 C-10.75144217 28.67159992 -5.39026231 14.33067952 0 0 Z " fill="#3072FE" transform="translate(249,381)"/>
<path d="M0 0 C5.61 0 11.22 0 17 0 C17.62491333 1.76984253 17.62491333 1.76984253 18.26245117 3.57543945 C20.23398275 9.15569525 22.21009395 14.73432348 24.1875 20.3125 C24.54537598 21.32254089 24.90325195 22.33258179 25.27197266 23.37322998 C29.09927806 34.16610278 32.94902652 44.94848774 36.95703125 55.67578125 C37.26102341 56.48942642 37.56501556 57.30307159 37.8782196 58.14137268 C39.30589003 61.95488503 40.74234445 65.76489273 42.18823242 69.5715332 C42.69841266 70.92529006 43.20858564 72.27904966 43.71875 73.6328125 C44.38293945 75.37908936 44.38293945 75.37908936 45.06054688 77.16064453 C46 80 46 80 46 83 C40.72 83 35.44 83 30 83 C27.84370792 77.6811462 25.81672901 72.45018704 24 67 C13.44 66.67 2.88 66.34 -8 66 C-8.33 67.98 -8.66 69.96 -9 72 C-10.20918245 75.7198143 -11.61606324 79.33926405 -13 83 C-18.61 83 -24.22 83 -30 83 C-25.27231505 69.39582621 -20.44343309 55.83073696 -15.53833008 42.28955078 C-14.4335682 39.23914372 -13.33093986 36.18797131 -12.22851562 33.13671875 C-8.2234878 22.06342242 -4.16052345 11.01585671 0 0 Z " fill="#3072FE" transform="translate(33,381)"/>
<path d="M0 0 C16.83 0 33.66 0 51 0 C51 5.28 51 10.56 51 16 C39.45 16 27.9 16 16 16 C16 21.94 16 27.88 16 34 C26.23 34 36.46 34 47 34 C47 38.95 47 43.9 47 49 C36.77 49 26.54 49 16 49 C16 55.27 16 61.54 16 68 C27.55 68 39.1 68 51 68 C51 72.95 51 77.9 51 83 C34.17 83 17.34 83 0 83 C0 55.61 0 28.22 0 0 Z " fill="#3172FE" transform="translate(520,381)"/>
<path d="M0 0 C16.5 0 33 0 50 0 C50 5.28 50 10.56 50 16 C38.45 16 26.9 16 15 16 C15 22.93 15 29.86 15 37 C24.9 37 34.8 37 45 37 C45 41.95 45 46.9 45 52 C35.1 52 25.2 52 15 52 C15 62.23 15 72.46 15 83 C10.05 83 5.1 83 0 83 C0 55.61 0 28.22 0 0 Z " fill="#3877FE" transform="translate(161,381)"/>
<path d="M0 0 C6.29684496 3.03309565 10.35999654 7.65324055 13.25 13.98828125 C15.73737934 22.55102961 15.38016963 32.82330617 11.52734375 40.91015625 C7.6164291 46.84773535 1.95211656 51.06245953 -4.8671875 53.02734375 C-13.59273835 53.95754512 -20.64195314 52.76338402 -27.6171875 47.33984375 C-32.80374255 42.59142235 -35.5462766 36.29175596 -36.0703125 29.328125 C-36.17498094 22.65551226 -35.72929397 17.10345503 -32.8671875 11.02734375 C-32.57328125 10.40085937 -32.279375 9.774375 -31.9765625 9.12890625 C-25.35290453 -2.19062864 -11.35654917 -4.29332957 0 0 Z " fill="#FBFCFD" transform="translate(389.8671875,396.97265625)"/>
<path d="M0 0 C4.95 0 9.9 0 15 0 C15 22.44 15 44.88 15 68 C26.22 68 37.44 68 49 68 C49 72.95 49 77.9 49 83 C32.83 83 16.66 83 0 83 C0 55.61 0 28.22 0 0 Z " fill="#2D6FFE" transform="translate(96,381)"/>
<path d="M0 0 C16.17 0 32.34 0 49 0 C49 4.95 49 9.9 49 15 C37.78 15 26.56 15 15 15 C15 14.67 15 14.34 15 14 C25.89 14 36.78 14 48 14 C48 10.04 48 6.08 48 2 C32.49 2 16.98 2 1 2 C1.33 28.07 1.66 54.14 2 81 C5.63 81 9.26 81 13 81 C12.99214478 79.69011108 12.99214478 79.69011108 12.98413086 78.35375977 C12.96712249 75.12410727 12.95456631 71.89447755 12.94506836 68.66479492 C12.9400292 67.26504772 12.93319784 65.8653058 12.92456055 64.46557617 C12.9124768 62.45754223 12.90730193 60.44947043 12.90234375 58.44140625 C12.89448853 56.62684937 12.89448853 56.62684937 12.88647461 54.77563477 C13 52 13 52 14 51 C16.21855264 50.91216458 18.43988496 50.89305391 20.66015625 50.90234375 C21.65685585 50.90446617 21.65685585 50.90446617 22.6736908 50.90663147 C24.80333899 50.91224482 26.93288339 50.92479946 29.0625 50.9375 C30.50325369 50.94251329 31.94400903 50.94707649 33.38476562 50.95117188 C36.92321102 50.96221855 40.46159539 50.97949208 44 51 C44 47.04 44 43.08 44 39 C34.43 39 24.86 39 15 39 C15 38.67 15 38.34 15 38 C24.9 38 34.8 38 45 38 C45 42.62 45 47.24 45 52 C35.1 52 25.2 52 15 52 C15 62.23 15 72.46 15 83 C10.05 83 5.1 83 0 83 C0 55.61 0 28.22 0 0 Z " fill="#1359FE" transform="translate(161,381)"/>
<path d="M0 0 C2.04023181 3.06034772 3.00748797 5.64977755 4.1640625 9.12890625 C4.56367188 10.32837891 4.96328125 11.52785156 5.375 12.76367188 C5.7875 14.01728516 6.2 15.27089844 6.625 16.5625 C7.04913402 17.83279758 7.47360946 19.10298123 7.8984375 20.37304688 C11 29.73311942 11 29.73311942 11 32 C3.74 32 -3.52 32 -11 32 C-7.625 20.75 -7.625 20.75 -5.95703125 16.2109375 C-5.60576172 15.25058594 -5.25449219 14.29023438 -4.89257812 13.30078125 C-4.53615234 12.33527344 -4.17972656 11.36976563 -3.8125 10.375 C-3.44447266 9.37082031 -3.07644531 8.36664063 -2.69726562 7.33203125 C-1.80077369 4.88705325 -0.90165072 2.44307919 0 0 Z " fill="#F8FAFE" transform="translate(257,401)"/>
<path d="M0 0 C2.04023181 3.06034772 3.00748797 5.64977755 4.1640625 9.12890625 C4.56367187 10.32837891 4.96328125 11.52785156 5.375 12.76367188 C5.7875 14.01728516 6.2 15.27089844 6.625 16.5625 C7.04913402 17.83279758 7.47360946 19.10298123 7.8984375 20.37304688 C11 29.73311942 11 29.73311942 11 32 C3.74 32 -3.52 32 -11 32 C-9.5955438 27.7636911 -8.19018746 23.52770377 -6.7824707 19.29248047 C-6.30373933 17.8512539 -5.82554632 16.40984838 -5.34790039 14.96826172 C-4.66173087 12.89764008 -3.97363545 10.82766715 -3.28515625 8.7578125 C-2.66459351 6.88826904 -2.66459351 6.88826904 -2.03149414 4.98095703 C-1 2 -1 2 0 0 Z " fill="#F8FAFD" transform="translate(41,401)"/>
<path d="M0 0 C4.29 0 8.58 0 13 0 C14.32 1.65 15.64 3.3 17 5 C16.67 5.66 16.34 6.32 16 7 C15.01 5.68 14.02 4.36 13 3 C9.37 2.67 5.74 2.34 2 2 C2 28.07 2 54.14 2 81 C5.96 81 9.92 81 14 81 C14 66.48 14 51.96 14 37 C14.33 37 14.66 37 15 37 C15 52.18 15 67.36 15 83 C10.05 83 5.1 83 0 83 C0 55.61 0 28.22 0 0 Z " fill="#1A60FE" transform="translate(435,381)"/>
<path d="M0 0 C0.33 0.66 0.66 1.32 1 2 C0.34 3.32 -0.32 4.64 -1 6 C23.09 6.33 47.18 6.66 72 7 C72 7.66 72 8.32 72 9 C46.59 9 21.18 9 -5 9 C-3.35 6.03 -1.7 3.06 0 0 Z " fill="#2067FE" transform="translate(73,350)"/>
<path d="M0 0 C1.51830386 0.04233866 3.0364555 0.09036263 4.55444336 0.14282227 C5.75090736 0.17823875 5.75090736 0.17823875 6.97154236 0.21437073 C9.52929684 0.29119112 12.08676238 0.37513567 14.64428711 0.45922852 C16.37409049 0.51243084 18.10390814 0.56517135 19.83374023 0.61743164 C24.08327355 0.74683094 28.33256093 0.88262164 32.58178711 1.02172852 C32.58178711 1.35172852 32.58178711 1.68172852 32.58178711 2.02172852 C21.03178711 2.02172852 9.48178711 2.02172852 -2.41821289 2.02172852 C-2.41821289 8.29172852 -2.41821289 14.56172852 -2.41821289 21.02172852 C-3.07821289 20.69172852 -3.73821289 20.36172852 -4.41821289 20.02172852 C-4.44709803 16.87591428 -4.46497212 13.73013383 -4.48071289 10.58422852 C-4.4890918 9.68639648 -4.4974707 8.78856445 -4.50610352 7.86352539 C-4.50932617 7.00952148 -4.51254883 6.15551758 -4.51586914 5.27563477 C-4.52372437 4.08949585 -4.52372437 4.08949585 -4.53173828 2.87939453 C-4.3255363 -0.49477937 -3.46963395 0.02205538 0 0 Z " fill="#4C84FE" transform="translate(538.418212890625,394.978271484375)"/>
<path d="M0 0 C2.56529454 1.28264727 2.66499863 2.22772349 3.625 4.875 C4.01558594 5.92300781 4.01558594 5.92300781 4.4140625 6.9921875 C5 9 5 9 5 12 C-0.28 12 -5.56 12 -11 12 C-11.66 10.68 -12.32 9.36 -13 8 C-12.67 7.01 -12.34 6.02 -12 5 C-11.67 6.65 -11.34 8.3 -11 10 C-6.38 10 -1.76 10 3 10 C2.2575 8.3603125 2.2575 8.3603125 1.5 6.6875 C0 3 0 3 0 0 Z " fill="#1B60FE" transform="translate(74,452)"/>
<path d="M0 0 C0.66 0.33 1.32 0.66 2 1 C2 1.99 2 2.98 2 4 C-3.28 4 -8.56 4 -14 4 C-12 2 -12 2 -9.1796875 1.8046875 C-8.08914063 1.82789063 -6.99859375 1.85109375 -5.875 1.875 C-4.77929688 1.89304687 -3.68359375 1.91109375 -2.5546875 1.9296875 C-1.71164062 1.95289063 -0.86859375 1.97609375 0 2 C0 1.34 0 0.68 0 0 Z " fill="#1A5FFE" transform="translate(293,460)"/>
</svg>
